<svg width="229" height="168" viewBox="0 0 229 168" fill="none" xmlns="http://www.w3.org/2000/svg">
<path fill-rule="evenodd" clip-rule="evenodd" d="M64.6289 157.083C79.1763 164.361 95.7865 168 114.459 168C132.915 168 149.417 164.361 163.964 157.083C178.511 149.805 189.911 139.899 198.161 127.365C204.584 117.451 208.506 106.496 209.93 94.5H229V58.963H206.944C204.894 52.3228 201.966 46.1125 198.161 40.3321C189.911 27.7978 178.511 17.9928 163.964 10.917C149.417 3.63898 132.915 0 114.459 0C95.7865 0 79.1763 3.63898 64.6289 10.917C50.2986 17.9928 38.8995 27.8989 30.4316 40.6354C26.6725 46.3459 23.7698 52.4551 21.7234 58.963H0V94.5H18.6633C20.0866 106.496 24.0093 117.451 30.4316 127.365C38.8995 139.899 50.2986 149.805 64.6289 157.083ZM70.4378 94.5C71.3733 99.5278 73.0196 104.114 75.3766 108.26C79.502 114.931 84.9302 120.087 91.6611 123.726C98.392 127.365 105.991 129.184 114.459 129.184C122.927 129.184 130.527 127.365 137.258 123.726C143.988 120.087 149.308 114.931 153.216 108.26C155.573 104.114 157.22 99.5278 158.155 94.5L70.4378 94.5ZM75.8675 58.963H152.75C148.889 52.667 143.725 47.7708 137.258 44.2744C130.527 40.6354 122.927 38.8159 114.459 38.8159C105.991 38.8159 98.392 40.6354 91.6611 44.2744C85.1938 47.7708 79.9293 52.667 75.8675 58.963Z" fill="white"/>
</svg>
